<svg viewBox="0 0 178 87" fill="none" xmlns="http://www.w3.org/2000/svg">
  <path d="M0 86H177.5" stroke="#1C1C1C"/>
  <path d="M20 0.5H158C168.77 0.5 177.5 9.23045 177.5 20V85.5H0.5V20C0.5 9.23045 9.23045 0.5 20 0.5Z" fill="#1C1C1C" stroke="url(#paint0_linear_92_309)"/>
  <path d="M69 0H109V0C109 2.76142 106.761 5 104 5H74C71.2386 5 69 2.76142 69 0V0Z" fill="#818181"/>
  <path d="M37 19H19C16.2386 19 14 20.7589 14 22.9286V37.0714C14 39.2411 16.2386 41 19 41H37C39.7614 41 42 39.2411 42 37.0714V22.9286C42 20.7589 39.7614 19 37 19Z" fill="url(#paint1_linear_92_309)"/>
  <path d="M93 19H60C57.2386 19 55 20.7589 55 22.9286V37.0714C55 39.2411 57.2386 41 60 41H93C95.7614 41 98 39.2411 98 37.0714V22.9286C98 20.7589 95.7614 19 93 19Z" fill="url(#paint2_linear_92_309)"/>
  <path d="M113.265 49.2129H135.532M113.265 57.1387H128.739M113.265 65.8194H159.687M113.265 74.5H140.061M144.213 49.2129H159.687M137.419 57.1387H159.687" stroke="url(#paint3_linear_92_309)" stroke-width="4" stroke-linecap="round"/>
  <path d="M113.265 49.2129H135.532M113.265 57.1387H128.739M113.265 65.8194H159.687M113.265 74.5H140.061M144.213 49.2129H159.687M137.419 57.1387H159.687" stroke="url(#paint4_linear_92_309)" stroke-width="4" stroke-linecap="round"/>
  <path d="M74 75V57.2229M80.5821 75V62.6464M87.791 75V49M95 75V53.6072M66 75V60M58 75V53.6072" stroke="url(#paint5_linear_92_309)" stroke-width="4" stroke-linecap="round"/>
  <path fill-rule="evenodd" clip-rule="evenodd" d="M160 41C161.105 41 162.011 40.1011 161.896 39.0025C160.726 27.7883 149.803 19 136.5 19C123.197 19 112.274 27.7883 111.104 39.0025C110.989 40.1011 111.895 41 113 41H160Z" fill="url(#paint6_linear_92_309)"/>
  <path d="M28 76C35.732 76 42 69.732 42 62C42 54.268 35.732 48 28 48C20.268 48 14 54.268 14 62C14 69.732 20.268 76 28 76Z" fill="url(#paint7_linear_92_309)"/>
  <defs>
    <linearGradient id="paint0_linear_92_309" x1="87.1757" y1="0" x2="87.1757" y2="86" gradientUnits="userSpaceOnUse">
      <stop stop-color="#818181"/>
      <stop offset="1" stop-color="#1C1C1C"/>
    </linearGradient>
    <linearGradient id="paint1_linear_92_309" x1="27.713" y1="0.499999" x2="27.713" y2="88" gradientUnits="userSpaceOnUse">
      <stop stop-color="#818181"/>
      <stop offset="1" stop-color="#1C1C1C"/>
    </linearGradient>
    <linearGradient id="paint2_linear_92_309" x1="76.0593" y1="1.5" x2="76.0593" y2="86.5" gradientUnits="userSpaceOnUse">
      <stop stop-color="#818181"/>
      <stop offset="1" stop-color="#1C1C1C"/>
    </linearGradient>
    <linearGradient id="paint3_linear_92_309" x1="136" y1="8" x2="136" y2="84" gradientUnits="userSpaceOnUse">
      <stop stop-color="#818181"/>
      <stop offset="1" stop-color="#1C1C1C"/>
    </linearGradient>
    <linearGradient id="paint4_linear_92_309" x1="136" y1="8" x2="136" y2="84" gradientUnits="userSpaceOnUse">
      <stop stop-color="#818181"/>
      <stop offset="1" stop-color="#1C1C1C"/>
    </linearGradient>
    <linearGradient id="paint5_linear_92_309" x1="76.1208" y1="6.62522" x2="76.1208" y2="84.7678" gradientUnits="userSpaceOnUse">
      <stop stop-color="#818181"/>
      <stop offset="1" stop-color="#1C1C1C"/>
    </linearGradient>
    <linearGradient id="paint6_linear_92_309" x1="135.977" y1="-1" x2="135.977" y2="84.5" gradientUnits="userSpaceOnUse">
      <stop stop-color="#818181"/>
      <stop offset="1" stop-color="#1C1C1C"/>
    </linearGradient>
    <linearGradient id="paint7_linear_92_309" x1="27.713" y1="2.36562" x2="27.713" y2="86.5192" gradientUnits="userSpaceOnUse">
      <stop stop-color="#818181"/>
      <stop offset="1" stop-color="#1C1C1C"/>
    </linearGradient>
  </defs>
</svg>