<svg viewBox="0 0 310 221" fill="none" xmlns="http://www.w3.org/2000/svg">
  <path d="M301.036 220H8.97856C4.56028 220 1 216.418 1 212V9C1 4.58172 4.58173 1 9 1H301C305.418 1 309 4.58172 309 9V212C309 216.418 305.454 220 301.036 220Z" stroke="#D9D9D9" stroke-linejoin="round"/>
  <path d="M295.033 214H14.9858C10.5676 214 7 210.418 7 206V25C7 20.5817 10.5817 17 15 17H295C299.418 17 303 20.5817 303 25V206C303 210.418 299.451 214 295.033 214Z" stroke="#D9D9D9" fill="currentColor" stroke-linejoin="round"/>
  <circle cx="10" cy="9" r="3" fill="#D9D9D9"/>
  <circle cx="19" cy="9" r="3" fill="#D9D9D9"/>
  <circle cx="28" cy="9" r="3" fill="#D9D9D9"/>
  <path id="animatable" d="M16 69H45.5M57 69H77.5M86.5 69H117M127 69H141M16 80H141M16 91H65M75.5 91H141M16 102.5H51.5M60 102.5H100M109.5 102.5H141" stroke="#D9D9D9" stroke-width="7" stroke-linecap="round"/>
  <rect x="112" y="6" width="85" height="6" rx="3" fill="#D9D9D9"/>
  <path id="animatable" d="M122.5 203.5V118.5M134 203.5V133.5M145 203.5V145M199.5 203.5V160M167 203.5V123M178 203.5V149M189 203.5V129.5M155.5 203.5V160" stroke="#D9D9D9" stroke-width="7" stroke-linecap="round"/>
  <path id="animatable" fill-rule="evenodd" clip-rule="evenodd" d="M57.5352 115.31C32.9391 115.31 13 135.249 13 159.845C13 184.441 32.9391 204.38 57.5352 204.38L57.5352 115.31Z" fill="#D9D9D9"/>
  <path id="animatable" fill-rule="evenodd" clip-rule="evenodd" d="M106 162.465C106 187.061 86.0609 207 61.4648 207L61.4648 162.465H106Z" fill="#D9D9D9"/>
  <path id="animatable" fill-rule="evenodd" clip-rule="evenodd" d="M106 158.535C106 133.939 86.0609 114 61.4648 114L61.4648 158.535H106Z" fill="#D9D9D9"/>
  <rect id="animatable" x="13" y="25" width="34" height="34" rx="5" fill="#D9D9D9"/>
  <rect id="animatable" x="112" y="25" width="34" height="34" rx="5" fill="#D9D9D9"/>
  <rect id="animatable" x="53" y="25" width="53" height="34" rx="5" fill="#D9D9D9"/>
  <path id="animatable" d="M164 69H193.5M164 79.5H184.5M164 91H225.5M164 102.5H199.5M205 69H225.5M196 79.5H225.5" stroke="#D9D9D9" stroke-width="7" stroke-linecap="round"/>
  <path id="animatable" fill-rule="evenodd" clip-rule="evenodd" d="M229 57.5C229 39.5507 213.778 25 195 25C176.222 25 161 39.5507 161 57.5H229Z" fill="#D9D9D9"/>
  <path id="animatable" d="M245.5 205.5V28.5M255.5 205.5V69.5M267 205.5V40.5M279.5 205.5V60.5M291.5 205.5V103" stroke="#D9D9D9" stroke-width="7" stroke-linecap="round"/>
  <rect id="animatable" x="210" y="114" width="21" height="93" rx="5" fill="#D9D9D9"/>
</svg>